/* XPM */
static char * C:\Users\francoisvermaut\Google Drive\Ingensol\VermautClothes\sprites\donald_xpm[] = {
"8 8 7 1",
" 	c #000000",
".	c #00AEFF",
"+	c #0000FF",
"@	c #FFFFFF",
"#	c #FF8000",
"$	c #FF0000",
"%	c #A2A2A2",
"    ..+ ",
"   +@@@ ",
"    @ @ ",
"    ####",
"   ..$  ",
" @@.@%%%",
"  @@%%  ",
" ## ### "};
