/* XPM */
static char * C:\Users\francoisvermaut\Google Drive\Ingensol\VermautClothes\sprites\fantom1_xpm[] = {
"8 8 4 1",
" 	c #000000",
".	c #00AEFF",
"+	c #0000FF",
"@	c #FFFFFF",
"        ",
"  ...+  ",
" .....+ ",
".. @. @+",
"..@@.@@+",
"......++",
"......++",
". .. .++"};
