/* XPM */
static char * C:\Users\francoisvermaut\Google Drive\Ingensol\VermautClothes\sprites\luigi_xpm[] = {
"8 8 9 1",
" 	c #000000",
".	c #00FF00",
"+	c #FFFFFF",
"@	c #A05000",
"#	c #FFB57F",
"$	c #FFFF00",
"%	c #0000FF",
"&	c #004464",
"*	c #00AEFF",
"   ...+ ",
"   .....",
"  @@@## ",
"  @#@ # ",
"   ##@@#",
" ..$### ",
"+ %%%%&*",
"  @   @ "};
